<svg width="24" height="24" viewBox="0 0 24 24" fill="none" xmlns="http://www.w3.org/2000/svg">
    <circle cx="12" cy="12" r="8" stroke="#ffffff" stroke-width="2"/>
    <path d="M12.0898 9.43906C11.7695 9.43906 11.5078 9.34141 11.3047 9.1461C11.1016 8.95078 11 8.7086 11 8.41953C11 8.11875 11.1016 7.87461 11.3047 7.68711C11.5078 7.4957 11.7695 7.4 12.0898 7.4C12.4141 7.4 12.6758 7.4957 12.875 7.68711C13.0781 7.87461 13.1797 8.11875 13.1797 8.41953C13.1797 8.72031 13.0781 8.96641 12.875 9.15781C12.6758 9.34531 12.4141 9.43906 12.0898 9.43906ZM13.0039 15.3395C13.0039 15.8507 12.5894 16.2652 12.0781 16.2652V16.2652C11.5668 16.2652 11.1523 15.8507 11.1523 15.3395V11.191C11.1523 10.6797 11.5668 10.2652 12.0781 10.2652V10.2652C12.5894 10.2652 13.0039 10.6797 13.0039 11.191V15.3395Z" fill="#ffffff"/>
</svg>