<svg width="24" height="24" viewBox="0 0 24 24" fill="none" xmlns="http://www.w3.org/2000/svg">
<path fill-rule="evenodd" clip-rule="evenodd" d="M6.44274 6C6.59003 6 6.73128 6.05851 6.83542 6.16265C6.93957 6.2668 6.99808 6.40805 6.99808 6.55534V7.11067H8.66409V6.55534C8.66409 6.40805 8.7226 6.2668 8.82675 6.16265C8.93089 6.05851 9.07214 6 9.21943 6C9.36671 6 9.50796 6.05851 9.61211 6.16265C9.71626 6.2668 9.77477 6.40805 9.77477 6.55534V7.11067H11.4408V6.55534C11.4408 6.40805 11.4993 6.2668 11.6034 6.16265C11.7076 6.05851 11.8488 6 11.9961 6C12.1434 6 12.2847 6.05851 12.3888 6.16265C12.4929 6.2668 12.5515 6.40805 12.5515 6.55534V7.11067H14.195V6.55534C14.195 6.40805 14.2535 6.2668 14.3577 6.16265C14.4618 6.05851 14.6031 6 14.7503 6C14.8976 6 15.0389 6.05851 15.143 6.16265C15.2472 6.2668 15.3057 6.40805 15.3057 6.55534V7.11067H16.9942V6.55534C16.9942 6.40805 17.0527 6.2668 17.1568 6.16265C17.261 6.05851 17.4022 6 17.5495 6C17.6968 6 17.838 6.05851 17.9422 6.16265C18.0463 6.2668 18.1048 6.40805 18.1048 6.55534V7.11067H18.668C19.2572 7.11067 19.8222 7.34471 20.2388 7.76129C20.6553 8.17788 20.8894 8.74289 20.8894 9.33202V15.1067C20.8894 15.6959 20.6553 16.2609 20.2388 16.6775C19.8222 17.0941 19.2572 17.3281 18.668 17.3281H18.1048V17.8834C18.1048 18.0307 18.0463 18.172 17.9422 18.2761C17.838 18.3803 17.6968 18.4388 17.5495 18.4388C17.4022 18.4388 17.261 18.3803 17.1568 18.2761C17.0527 18.172 16.9942 18.0307 16.9942 17.8834V17.3281H15.3057V17.8834C15.3057 18.0307 15.2472 18.172 15.143 18.2761C15.0389 18.3803 14.8976 18.4388 14.7503 18.4388C14.6031 18.4388 14.4618 18.3803 14.3577 18.2761C14.2535 18.172 14.195 18.0307 14.195 17.8834V17.3281H12.5515V17.8834C12.5515 18.0307 12.4929 18.172 12.3888 18.2761C12.2847 18.3803 12.1434 18.4388 11.9961 18.4388C11.8488 18.4388 11.7076 18.3803 11.6034 18.2761C11.4993 18.172 11.4408 18.0307 11.4408 17.8834V17.3281H9.77477V17.8834C9.77477 18.0307 9.71626 18.172 9.61211 18.2761C9.50796 18.3803 9.36671 18.4388 9.21943 18.4388C9.07214 18.4388 8.93089 18.3803 8.82675 18.2761C8.7226 18.172 8.66409 18.0307 8.66409 17.8834V17.3281H6.99808V17.8834C6.99808 18.0307 6.93957 18.172 6.83542 18.2761C6.73128 18.3803 6.59003 18.4388 6.44274 18.4388C6.29546 18.4388 6.1542 18.3803 6.05006 18.2761C5.94591 18.172 5.8874 18.0307 5.8874 17.8834V17.3281H5.33207C4.74293 17.3281 4.17792 17.0941 3.76134 16.6775C3.34475 16.2609 3.11072 15.6959 3.11072 15.1067V9.33202C3.11072 8.74289 3.34475 8.17788 3.76134 7.76129C4.17792 7.34471 4.74293 7.11067 5.33207 7.11067H5.8874V6.55534C5.8874 6.40805 5.94591 6.2668 6.05006 6.16265C6.1542 6.05851 6.29546 6 6.44274 6ZM5.58007 8.78003C5.13824 8.78003 4.78007 9.1382 4.78007 9.58003V14.76C4.78007 15.2019 5.13824 15.56 5.58007 15.56H18.3801C18.8219 15.56 19.1801 15.2019 19.1801 14.76V9.58003C19.1801 9.1382 18.8219 8.78003 18.3801 8.78003H5.58007Z" fill="#ffffff"/>
</svg>
