<svg width="28" height="24" viewBox="0 0 28 24" fill="none" xmlns="http://www.w3.org/2000/svg">
<path fill-rule="evenodd" clip-rule="evenodd" d="M7.278 0.219453C7.38312 0.324547 7.45465 0.458508 7.48349 0.604329C7.51234 0.750149 7.4972 0.901252 7.44 1.03845C6.98282 2.13567 6.74828 3.3128 6.75 4.50145C6.75 6.8884 7.69821 9.17759 9.38604 10.8654C11.0739 12.5532 13.3631 13.5015 15.75 13.5015C16.9386 13.5032 18.1158 13.2686 19.213 12.8115C19.3501 12.7544 19.5011 12.7392 19.6468 12.768C19.7925 12.7968 19.9263 12.8682 20.0314 12.9732C20.1365 13.0782 20.208 13.212 20.237 13.3576C20.2659 13.5033 20.251 13.6543 20.194 13.7915C19.396 15.7047 18.0497 17.339 16.3247 18.4886C14.5996 19.6381 12.573 20.2515 10.5 20.2515C4.701 20.2515 0 15.5505 0 9.75145C0 5.38345 2.667 1.63945 6.46 0.0574534C6.59707 0.000472963 6.74797 -0.0145491 6.89359 0.0142894C7.03921 0.0431279 7.17299 0.11453 7.278 0.219453Z" fill="#FFF961"/>
<path fill-rule="evenodd" clip-rule="evenodd" d="M9.75246 13.5045C9.75175 12.1093 10.2373 10.7575 11.1255 9.68163C12.0137 8.60573 13.2491 7.873 14.6192 7.60948C15.9892 7.34595 17.4083 7.56812 18.6322 8.23775C19.8562 8.90738 20.8085 9.98261 21.3255 11.2785C21.8991 11.2126 22.4803 11.2801 23.0236 11.4758C23.5669 11.6714 24.0577 11.9899 24.4577 12.4063C24.8577 12.8228 25.1562 13.326 25.3298 13.8768C25.5033 14.4275 25.5474 15.0109 25.4585 15.5815C26.3261 16.069 27.0076 16.8304 27.3963 17.7466C27.7851 18.6627 27.8592 19.6819 27.6071 20.6446C27.3549 21.6073 26.7908 22.4593 26.0028 23.0673C25.2149 23.6752 24.2477 24.0048 23.2525 24.0045H12.0025C10.8081 24.005 9.64929 23.5984 8.71724 22.8516C7.78518 22.1047 7.13563 21.0625 6.87577 19.8967C6.61592 18.731 6.76131 17.5115 7.28793 16.4396C7.81456 15.3676 8.69096 14.5072 9.77246 14.0005C9.75903 13.8355 9.75236 13.67 9.75246 13.5045Z" fill="#D7D7D7"/>
</svg>
