<svg width="26" height="20" viewBox="0 0 26 20" fill="none" xmlns="http://www.w3.org/2000/svg">
<path fill-rule="evenodd" clip-rule="evenodd" d="M3.71664 7.27506C3.71577 5.58426 4.31678 3.94601 5.41627 2.64214C6.51577 1.33826 8.04502 0.450261 9.74096 0.130899C11.4369 -0.188463 13.1935 0.0807756 14.7086 0.8923C16.2237 1.70382 17.4026 3.0069 18.0425 4.57737C18.7526 4.49755 19.472 4.57937 20.1445 4.81645C20.8171 5.05354 21.4246 5.43948 21.9198 5.9442C22.4149 6.44892 22.7844 7.05877 22.9992 7.72623C23.2141 8.39368 23.2686 9.1007 23.1585 9.79217C24.2325 10.383 25.0761 11.3058 25.5574 12.416C26.0386 13.5263 26.1304 14.7614 25.8183 15.9281C25.5061 17.0949 24.8078 18.1274 23.8324 18.8642C22.8571 19.6009 21.6597 20.0004 20.4278 20H6.50183C5.02341 20.0007 3.58893 19.5078 2.43517 18.6028C1.28142 17.6977 0.477352 16.4346 0.155689 15.0218C-0.165974 13.6091 0.0139948 12.1312 0.665891 10.8321C1.31779 9.53296 2.40264 8.49029 3.74139 7.87616C3.72478 7.67621 3.71652 7.47567 3.71664 7.27506Z" fill="#D7D7D7"/>
</svg>
