<svg width="27" height="20" viewBox="0 0 27 20" fill="none" xmlns="http://www.w3.org/2000/svg">
<circle cx="9" cy="9" r="9" fill="#FFF961"/>
<path fill-rule="evenodd" clip-rule="evenodd" d="M8.75246 9.50449C8.75175 8.10932 9.23727 6.75752 10.1255 5.68163C11.0137 4.60573 12.2491 3.873 13.6192 3.60948C14.9892 3.34595 16.4083 3.56812 17.6322 4.23775C18.8562 4.90738 19.8085 5.98261 20.3255 7.27849C20.8991 7.21262 21.4803 7.28014 22.0236 7.47577C22.5669 7.6714 23.0577 7.98986 23.4577 8.40633C23.8577 8.8228 24.1562 9.32602 24.3298 9.87677C24.5033 10.4275 24.5474 11.0109 24.4585 11.5815C25.3261 12.069 26.0076 12.8304 26.3963 13.7466C26.7851 14.6627 26.8592 15.6819 26.6071 16.6446C26.3549 17.6073 25.7908 18.4593 25.0028 19.0673C24.2149 19.6752 23.2477 20.0048 22.2525 20.0045H11.0025C9.80812 20.005 8.64929 19.5984 7.71724 18.8516C6.78518 18.1047 6.13563 17.0625 5.87577 15.8967C5.61592 14.731 5.76131 13.5115 6.28793 12.4396C6.81456 11.3676 7.69096 10.5072 8.77246 10.0005C8.75903 9.8355 8.75236 9.67003 8.75246 9.50449Z" fill="#D7D7D7"/>
</svg>
