<svg width="23" height="22" viewBox="0 0 23 22" fill="none" xmlns="http://www.w3.org/2000/svg">
<path fill-rule="evenodd" clip-rule="evenodd" d="M8.26582 0.238401C8.38521 0.352569 8.46644 0.498096 8.4992 0.656507C8.53196 0.814919 8.51477 0.979068 8.44981 1.12812C7.93058 2.32006 7.6642 3.59884 7.66615 4.89012C7.66615 7.48316 8.74306 9.97 10.66 11.8036C12.5769 13.6371 15.1768 14.6672 17.8877 14.6672C19.2377 14.6691 20.5746 14.4143 21.8207 13.9176C21.9764 13.8556 22.1479 13.8392 22.3134 13.8705C22.4788 13.9017 22.6309 13.9793 22.7502 14.0933C22.8695 14.2074 22.9508 14.3527 22.9837 14.511C23.0165 14.6692 22.9996 14.8332 22.9349 14.9822C22.0286 17.0607 20.4996 18.8361 18.5404 20.0849C16.5812 21.3337 14.2795 22.0001 11.9251 22C5.33905 22 0 16.8931 0 10.5934C0 5.84827 3.02898 1.78101 7.33679 0.0624141C7.49247 0.000513799 7.66385 -0.0158053 7.82923 0.0155232C7.99461 0.0468517 8.14656 0.124419 8.26582 0.238401Z" fill="#FFF961"/>
</svg>
