<svg width="28" height="27" viewBox="0 0 28 27" fill="none" xmlns="http://www.w3.org/2000/svg">
<path fill-rule="evenodd" clip-rule="evenodd" d="M6.62555 2.73853C4.66999 4.49194 3.57086 6.86987 3.57086 9.34961V10.3884C3.57575 13.2131 2.40875 15.9382 0.296938 18.0344C0.170473 18.1606 0.0806296 18.3125 0.0347312 18.4771C-0.0111672 18.6416 -0.0116555 18.8137 0.0337546 18.9783C0.0791648 19.1431 0.169009 19.2952 0.294985 19.4216C0.42145 19.5481 0.580141 19.6448 0.757387 19.7036C3.17389 20.5034 5.67487 21.0806 8.22174 21.4268C8.16364 22.1389 8.26959 22.854 8.53375 23.5278C8.79791 24.2014 9.21393 24.8191 9.75641 25.342C10.2984 25.865 10.9551 26.2822 11.6856 26.5676C12.4156 26.8528 13.2037 27 14.0001 27C14.7964 27 15.5845 26.8528 16.3145 26.5676C17.045 26.2822 17.7017 25.865 18.2437 25.342C18.7862 24.8191 19.2022 24.2014 19.4664 23.5278C19.7305 22.854 19.8365 22.1389 19.7784 21.4268C22.3604 21.0762 24.857 20.4944 27.2427 19.7048C27.4205 19.6462 27.5792 19.5491 27.7051 19.4226C27.8316 19.2961 27.921 19.1436 27.9664 18.9788C28.0118 18.814 28.0113 18.6418 27.9649 18.4771C27.9376 18.3782 27.8941 18.2839 27.836 18.197C27.7974 18.1392 27.7525 18.0847 27.7017 18.0344C25.6651 16.0081 24.4293 13.3291 24.4293 10.3884V9.34961C24.4293 6.86987 23.3306 4.49194 21.3746 2.73853C19.4185 0.985107 16.7662 0 14.0001 0C11.2339 0 8.58161 0.985107 6.62555 2.73853ZM10.7481 22.9097C10.5821 22.5166 10.5069 22.0974 10.5269 21.6775C12.8375 21.864 15.1627 21.864 17.4732 21.6775C17.4932 22.0974 17.418 22.5166 17.2525 22.9097C17.0865 23.303 16.834 23.6621 16.5093 23.9656C16.1851 24.269 15.7955 24.5105 15.3643 24.6753C15.1656 24.7515 14.96 24.8103 14.7501 24.8521C14.5045 24.9006 14.253 24.9253 14.0001 24.9253C13.5313 24.9253 13.0674 24.8403 12.6358 24.6753C12.2047 24.5105 11.815 24.269 11.4908 23.9656C11.1661 23.6621 10.9136 23.303 10.7481 22.9097ZM14.9805 7.11328C14.564 6.96484 14.1226 6.89062 13.6563 6.89062C13.0235 6.89062 12.4664 7.00903 11.9844 7.24609C11.5025 7.48315 11.1265 7.81519 10.8555 8.24219C10.5845 8.66919 10.4507 9.16675 10.4532 9.73438C10.4556 10.2188 10.5587 10.6511 10.7618 11.0312C10.9649 11.4089 11.2476 11.707 11.6094 11.9258C11.9713 12.1418 12.3931 12.25 12.8751 12.25C13.1798 12.25 13.4688 12.2031 13.7423 12.1094C13.8458 12.0737 13.9444 12.0325 14.0386 11.9854C14.1924 11.9082 14.3336 11.8154 14.461 11.707C14.6666 11.5325 14.8204 11.323 14.9219 11.0781H14.9688C14.9664 11.7422 14.858 12.2734 14.6446 12.6719C14.5303 12.8865 14.3795 13.043 14.1924 13.1411C14.0347 13.2241 13.8506 13.2656 13.6407 13.2656C13.4117 13.2656 13.2086 13.2122 13.0313 13.1055C12.8541 12.9961 12.7398 12.8203 12.6876 12.5781H10.5469C10.5914 13.0469 10.7462 13.4727 11.0118 13.8555C11.2774 14.2383 11.6343 14.543 12.0821 14.7695C12.5298 14.9961 13.0494 15.1094 13.6407 15.1094C14.1666 15.1094 14.6431 15.0129 15.0704 14.8203C15.5001 14.625 15.8673 14.3438 16.1719 13.9766C16.3546 13.7583 16.5118 13.5129 16.6436 13.2407C16.7339 13.0547 16.8126 12.856 16.879 12.6445C17.0455 12.1211 17.1275 11.5312 17.1251 10.875C17.1226 10.1562 17.0289 9.54419 16.8438 9.03906C16.6617 8.53125 16.4088 8.11987 16.086 7.80469C15.7657 7.4895 15.397 7.25903 14.9805 7.11328ZM13.3609 8.56958C13.4586 8.54395 13.5621 8.53125 13.6719 8.53125C13.8829 8.53125 14.0718 8.58081 14.2383 8.67969C14.4048 8.77856 14.5367 8.91284 14.6329 9.08203C14.7291 9.25122 14.7789 9.44263 14.7813 9.65625C14.7838 9.81519 14.7564 9.96362 14.6993 10.1016C14.6446 10.2371 14.5665 10.3567 14.4649 10.4609C14.3658 10.5625 14.2486 10.6418 14.1133 10.6992C13.9781 10.7539 13.8306 10.7812 13.6719 10.7812C13.5523 10.7812 13.44 10.7661 13.3355 10.7358C13.2515 10.7114 13.1719 10.677 13.0977 10.6328C12.9825 10.5635 12.8843 10.4768 12.8023 10.3728C12.7676 10.3284 12.7359 10.281 12.7071 10.2305C12.6133 10.0613 12.565 9.86987 12.5626 9.65625C12.5601 9.44263 12.6055 9.25122 12.6993 9.08203C12.7955 8.91284 12.9273 8.77856 13.0938 8.67969C13.1773 8.6311 13.2662 8.59424 13.3609 8.56958Z" fill="white"/>
</svg>