<svg width="28" height="27" viewBox="0 0 28 27" fill="none" xmlns="http://www.w3.org/2000/svg">
<path fill-rule="evenodd" clip-rule="evenodd" d="M6.62555 2.73853C4.66999 4.49194 3.57086 6.86987 3.57086 9.34961V10.3884C3.57575 13.2131 2.40875 15.9382 0.296938 18.0344C0.170473 18.1606 0.0806296 18.3125 0.0347312 18.4771C-0.0111672 18.6416 -0.0116555 18.8137 0.0337546 18.9783C0.0791648 19.1431 0.169009 19.2952 0.294985 19.4216C0.42145 19.5481 0.580141 19.6448 0.757387 19.7036C3.17389 20.5034 5.67487 21.0806 8.22174 21.4268C8.16364 22.1389 8.26959 22.854 8.53375 23.5278C8.79791 24.2014 9.21393 24.8191 9.75641 25.342C10.2984 25.865 10.9551 26.2822 11.6856 26.5676C12.4156 26.8528 13.2037 27 14.0001 27C14.7964 27 15.5845 26.8528 16.3145 26.5676C17.045 26.2822 17.7017 25.865 18.2437 25.342C18.7862 24.8191 19.2022 24.2014 19.4664 23.5278C19.7305 22.854 19.8365 22.1389 19.7784 21.4268C22.3604 21.0762 24.857 20.4944 27.2427 19.7048C27.3389 19.6731 27.4298 19.6301 27.5123 19.5774C27.5826 19.5325 27.6475 19.4807 27.7051 19.4226C27.8316 19.2961 27.921 19.1436 27.9664 18.9788C27.9864 18.906 27.9976 18.8315 27.9996 18.7571C28.0025 18.6633 27.9908 18.5691 27.9649 18.4771C27.9376 18.3787 27.8946 18.2849 27.837 18.1985C27.7984 18.1401 27.753 18.0852 27.7017 18.0344C25.6651 16.0081 24.4293 13.3291 24.4293 10.3884V9.34961C24.4293 6.86987 23.3306 4.49194 21.3746 2.73853C19.4185 0.985107 16.7662 0 14.0001 0C11.2339 0 8.58161 0.985107 6.62555 2.73853ZM10.7481 22.9097C10.5821 22.5166 10.5069 22.0974 10.5269 21.6775C12.8375 21.864 15.1627 21.864 17.4732 21.6775C17.4932 22.0974 17.418 22.5166 17.2525 22.9097C17.0865 23.303 16.834 23.6621 16.5093 23.9656C16.1851 24.269 15.7955 24.5105 15.3643 24.6753C15.0865 24.7815 14.7955 24.8545 14.4981 24.8931C14.3336 24.9146 14.1671 24.9253 14.0001 24.9253C13.5313 24.9253 13.0674 24.8403 12.6358 24.6753C12.2047 24.5105 11.815 24.269 11.4908 23.9656C11.1661 23.6621 10.9136 23.303 10.7481 22.9097ZM11.9766 14.7852C12.4664 15.0012 13.0259 15.1094 13.6563 15.1094C14.3101 15.1094 14.8868 15.0066 15.3868 14.8008C15.8892 14.595 16.2813 14.3113 16.5626 13.9492C16.8463 13.5872 16.9869 13.1719 16.9844 12.7031C16.9898 12.2136 16.8297 11.8074 16.504 11.4844C16.2672 11.2476 15.9454 11.0781 15.5386 10.9763C15.3868 10.9382 15.2227 10.9097 15.0469 10.8906V10.8281C15.5235 10.7761 15.9166 10.6067 16.2266 10.3203C16.5391 10.0339 16.6929 9.66675 16.6876 9.21875C16.69 8.76831 16.5626 8.36841 16.3048 8.01953C16.0494 7.66797 15.6939 7.39185 15.2383 7.19141C14.7852 6.99097 14.2632 6.89062 13.6719 6.89062C13.2227 6.89062 12.8121 6.94971 12.439 7.06738C12.3101 7.10815 12.1861 7.15601 12.0665 7.21094C11.7745 7.34473 11.5211 7.51025 11.3072 7.70728C11.1793 7.82471 11.065 7.95361 10.9649 8.09375C10.6993 8.46875 10.565 8.90112 10.5626 9.39062H12.6407C12.6431 9.22925 12.689 9.08594 12.7774 8.96094C12.8658 8.83594 12.9869 8.73828 13.1407 8.66797C13.2969 8.59766 13.4742 8.5625 13.6719 8.5625C13.8541 8.5625 14.0142 8.59644 14.1524 8.66406C14.293 8.73169 14.4024 8.82544 14.4805 8.94531C14.5587 9.06519 14.5963 9.20312 14.5938 9.35938C14.5963 9.52075 14.5508 9.66406 14.4571 9.78906C14.3658 9.91406 14.2369 10.0117 14.0704 10.082C13.9063 10.1523 13.7164 10.1875 13.5001 10.1875H12.6876V11.6875H13.5001C13.7344 11.6875 13.9415 11.7227 14.1212 11.793C14.3008 11.8633 14.44 11.9609 14.5391 12.0859C14.6407 12.2109 14.69 12.3542 14.6876 12.5156C14.69 12.6797 14.6485 12.8254 14.5626 12.9531C14.4766 13.0808 14.357 13.1809 14.2032 13.2539C14.0494 13.3242 13.8726 13.3594 13.6719 13.3594C13.4634 13.3594 13.2789 13.3254 13.1173 13.2578C12.9556 13.1902 12.8282 13.0964 12.7344 12.9766C12.6431 12.8542 12.5963 12.7161 12.5938 12.5625H10.4063C10.4088 13.0598 10.5494 13.5 10.8282 13.8828C11.107 14.2656 11.4898 14.5664 11.9766 14.7852Z" fill="white"/>
</svg>