<svg width="28" height="27" viewBox="0 0 28 27" fill="none" xmlns="http://www.w3.org/2000/svg">
<path fill-rule="evenodd" clip-rule="evenodd" d="M6.62544 2.73853C4.66987 4.49194 3.57075 6.86987 3.57075 9.34961V10.3884C3.57563 13.2131 2.40864 15.9382 0.296825 18.0344C0.170361 18.1606 0.0805168 18.3125 0.0346184 18.4771C0.00776291 18.5735 -0.00346756 18.6724 0.000926971 18.771C0.00385666 18.8406 0.0145988 18.9102 0.0336418 18.9783C0.079052 19.1431 0.168896 19.2952 0.294872 19.4216C0.377392 19.5042 0.473583 19.5742 0.580029 19.6292C0.636669 19.6582 0.695751 19.6831 0.757275 19.7036C3.17378 20.5034 5.67476 21.0806 8.22163 21.4268C8.16352 22.1389 8.26948 22.854 8.53364 23.5278C8.7978 24.2014 9.21382 24.8191 9.7563 25.342C10.2983 25.865 10.955 26.2822 11.6855 26.5676C12.4155 26.8528 13.2036 27 14 27C14.7963 27 15.5844 26.8528 16.3144 26.5676C17.0449 26.2822 17.7016 25.865 18.2436 25.342C18.7861 24.8191 19.2021 24.2014 19.4663 23.5278C19.6264 23.1196 19.728 22.6965 19.7705 22.2678C19.7983 21.9888 19.8012 21.7075 19.7783 21.4268C22.3603 21.0762 24.8569 20.4944 27.2426 19.7048C27.4204 19.6462 27.5791 19.5491 27.705 19.4226C27.8315 19.2961 27.9208 19.1436 27.9663 18.9788C28.0117 18.814 28.0112 18.6418 27.9648 18.4771C27.9189 18.3125 27.8286 18.1604 27.7016 18.0344C25.665 16.0081 24.4291 13.3291 24.4291 10.3884V9.34961C24.4291 6.86987 23.3305 4.49194 21.3745 2.73853C19.4184 0.985107 16.7661 0 14 0C11.2338 0 8.58149 0.985107 6.62544 2.73853ZM10.748 22.9097C10.582 22.5166 10.5068 22.0974 10.5268 21.6775C12.8374 21.864 15.1625 21.864 17.4731 21.6775C17.4931 22.0974 17.4179 22.5166 17.2524 22.9097C17.0864 23.303 16.8339 23.6621 16.5092 23.9656C16.185 24.269 15.7954 24.5105 15.3642 24.6753C14.9331 24.8403 14.4687 24.9253 14 24.9253C13.5312 24.9253 13.0673 24.8403 12.6357 24.6753C12.2045 24.5105 11.8149 24.269 11.4907 23.9656C11.166 23.6621 10.9135 23.303 10.748 22.9097ZM12.0976 14.7852C12.5742 15.0012 13.1196 15.1094 13.7343 15.1094C14.3852 15.1094 14.9516 14.9883 15.4335 14.7461C15.9155 14.5012 16.289 14.1641 16.5546 13.7344C16.8227 13.302 16.9555 12.8074 16.9531 12.25C16.9555 11.7422 16.8476 11.2942 16.6289 10.9062C16.4125 10.5156 16.1171 10.2097 15.7421 9.98828C15.3696 9.76685 14.9453 9.65625 14.4687 9.65625C14.2866 9.65625 14.1142 9.67236 13.9521 9.70483C13.7524 9.74487 13.5678 9.80957 13.3984 9.89844C13.0913 10.0574 12.875 10.2578 12.75 10.5H12.7031L12.8593 8.73438H16.4531V7H11.0781L10.7656 11.4062L12.6718 11.7812C12.7631 11.5859 12.9047 11.4336 13.0976 11.3242C13.2929 11.2122 13.5053 11.1562 13.7343 11.1562C13.9555 11.1562 14.1508 11.2043 14.3203 11.3008C14.3867 11.3374 14.4472 11.3804 14.5024 11.4294C14.5878 11.5056 14.6601 11.5967 14.7187 11.7031C14.8149 11.875 14.8618 12.0781 14.8593 12.3125C14.8608 12.4614 14.8417 12.5986 14.8027 12.7239C14.7812 12.7935 14.7529 12.8594 14.7187 12.9219C14.6225 13.0964 14.4897 13.2317 14.3203 13.3281C14.2324 13.377 14.1372 13.4131 14.0346 13.4365C13.9404 13.458 13.8403 13.4688 13.7343 13.4688C13.4477 13.4688 13.2006 13.3867 12.9921 13.2227C12.7866 13.0586 12.6796 12.8386 12.6718 12.5625H10.5625C10.5678 13.0598 10.7055 13.5 10.9765 13.8828C11.25 14.2656 11.6235 14.5664 12.0976 14.7852Z" fill="white"/>
</svg>