<svg width="28" height="27" viewBox="0 0 28 27" fill="none" xmlns="http://www.w3.org/2000/svg">
<path fill-rule="evenodd" clip-rule="evenodd" d="M6.62562 2.73853C4.67005 4.49194 3.57093 6.86987 3.57093 9.34961V10.3884C3.57582 13.2131 2.40882 15.9382 0.297008 18.0344C0.170543 18.1606 0.0806996 18.3125 0.0348011 18.4771C0.00745739 18.5745 -0.00377308 18.6746 0.00110973 18.7742C0.0045277 18.8428 0.0152699 18.9111 0.0338246 18.9783C0.0792347 19.1431 0.169078 19.2952 0.295055 19.4216C0.352672 19.479 0.416637 19.5303 0.485973 19.5747C0.569469 19.6282 0.660778 19.6714 0.757457 19.7036C3.17396 20.5034 5.67494 21.0806 8.22181 21.4268C8.19398 21.7686 8.20375 22.1108 8.25062 22.449C8.30189 22.8157 8.39662 23.1772 8.53382 23.5278C8.79799 24.2014 9.214 24.8191 9.75648 25.342C10.2985 25.865 10.9552 26.2822 11.6857 26.5676C12.4157 26.8528 13.2037 27 14.0001 27C14.7965 27 15.5846 26.8528 16.3146 26.5676C17.0451 26.2822 17.7018 25.865 18.2438 25.342C18.7863 24.8191 19.2023 24.2014 19.4664 23.5278C19.7306 22.854 19.8366 22.1389 19.7785 21.4268C22.3605 21.0762 24.8571 20.4944 27.2428 19.7048C27.3078 19.6833 27.3703 19.6567 27.4293 19.6255C27.5324 19.5713 27.6251 19.5029 27.7052 19.4226C27.8317 19.2961 27.921 19.1436 27.9664 18.9788C28.0119 18.814 28.0114 18.6418 27.965 18.4771C27.9191 18.3125 27.8287 18.1604 27.7018 18.0344C25.6652 16.0081 24.4293 13.3291 24.4293 10.3884V9.34961C24.4293 6.86987 23.3307 4.49194 21.3746 2.73853C19.4186 0.985107 16.7662 0 14.0001 0C11.234 0 8.58168 0.985107 6.62562 2.73853ZM10.5646 22.2864C10.5299 22.0854 10.5172 21.8816 10.527 21.6775C12.8375 21.864 15.1627 21.864 17.4733 21.6775C17.4933 22.0974 17.4181 22.5166 17.2526 22.9097C17.0866 23.303 16.8341 23.6621 16.5094 23.9656C16.1852 24.269 15.7955 24.5105 15.3644 24.6753C14.9332 24.8403 14.4689 24.9253 14.0001 24.9253C13.5314 24.9253 13.0675 24.8403 12.6359 24.6753C12.2047 24.5105 11.8151 24.269 11.4909 23.9656C11.1661 23.6621 10.9137 23.303 10.7482 22.9097C10.6627 22.7075 10.6017 22.4988 10.5646 22.2864ZM11.9806 7.11328C11.5641 6.96484 11.1227 6.89062 10.6564 6.89062C10.0236 6.89062 9.46644 7.00903 8.98451 7.24609C8.50257 7.48315 8.1266 7.81519 7.8556 8.24219C7.58461 8.66919 7.45082 9.16675 7.45326 9.73438C7.4557 10.2188 7.55873 10.6511 7.76185 11.0312C7.8473 11.1897 7.94642 11.3342 8.0597 11.4646C8.21595 11.645 8.39955 11.7988 8.60951 11.9258C8.84925 12.0691 9.11586 12.1648 9.40834 12.2131C9.55677 12.2378 9.71254 12.25 9.87513 12.25C10.1798 12.25 10.4689 12.2031 10.7423 12.1094C11.0158 12.0156 11.2555 11.8816 11.4611 11.707C11.6666 11.5325 11.8204 11.323 11.922 11.0781H11.9689C11.9684 11.2019 11.9645 11.3213 11.9567 11.4358C11.9494 11.5383 11.9396 11.6372 11.9269 11.7324C11.8771 12.1011 11.7828 12.4143 11.6447 12.6719C11.4337 13.0676 11.0993 13.2656 10.6408 13.2656C10.4118 13.2656 10.2086 13.2122 10.0314 13.1055C9.85414 12.9961 9.73988 12.8203 9.68763 12.5781H7.54701C7.57533 12.8784 7.64906 13.1609 7.7682 13.426C7.83509 13.5747 7.91615 13.7178 8.01185 13.8555C8.15345 14.0598 8.32142 14.2419 8.51527 14.4016C8.68422 14.5413 8.87318 14.6638 9.08216 14.7695C9.20424 14.8313 9.33216 14.8848 9.46547 14.9297C9.60023 14.9753 9.74037 15.0122 9.88588 15.0405C10.1232 15.0864 10.3746 15.1094 10.6408 15.1094C11.1666 15.1094 11.6432 15.0129 12.0704 14.8203C12.5001 14.625 12.8673 14.3438 13.172 13.9766C13.4791 13.6094 13.715 13.1653 13.879 12.6445C14.0455 12.1211 14.1276 11.5312 14.1251 10.875C14.1237 10.5093 14.0988 10.1711 14.0504 9.8606C14.0036 9.56104 13.9347 9.28711 13.8439 9.03906C13.6618 8.53125 13.4088 8.11987 13.0861 7.80469C12.9157 7.63672 12.7311 7.49292 12.5333 7.37305C12.4352 7.31396 12.3341 7.2605 12.2296 7.21313C12.1486 7.17627 12.0656 7.14307 11.9806 7.11328ZM10.0939 8.67969C10.2633 8.58081 10.4557 8.53125 10.672 8.53125C10.8829 8.53125 11.0719 8.58081 11.2384 8.67969C11.4049 8.77856 11.5368 8.91284 11.6329 9.08203C11.7291 9.25122 11.7789 9.44263 11.7814 9.65625C11.7838 9.81519 11.7565 9.96362 11.6994 10.1016C11.6447 10.2371 11.5665 10.3567 11.465 10.4609C11.4093 10.5181 11.3478 10.5681 11.2804 10.6111C11.2282 10.6448 11.1725 10.6741 11.1134 10.6992C10.9782 10.7539 10.8307 10.7812 10.672 10.7812C10.526 10.7812 10.3912 10.7585 10.2672 10.7134C10.2081 10.6917 10.1515 10.6648 10.0978 10.6328C9.93373 10.5339 9.80336 10.3997 9.70716 10.2305C9.67152 10.1665 9.64271 10.0994 9.62025 10.0288C9.60463 9.97998 9.59242 9.92969 9.58314 9.87793C9.57631 9.83838 9.57093 9.79785 9.56752 9.75659C9.56459 9.72363 9.56312 9.69019 9.56263 9.65625C9.56019 9.44263 9.6056 9.25122 9.69935 9.08203C9.75355 8.98682 9.81898 8.90283 9.89515 8.82983C9.95472 8.77295 10.0211 8.7229 10.0939 8.67969ZM17.4679 11.8906V13.9062H19.2179V11.8906H21.2335V10.1406H19.2179V8.125H17.4679V10.1406H15.4523V11.8906H17.4679Z" fill="white"/>
</svg>