<svg width="28" height="27" viewBox="0 0 28 27" fill="none" xmlns="http://www.w3.org/2000/svg">
<path fill-rule="evenodd" clip-rule="evenodd" d="M6.62551 2.73853C4.66995 4.49194 3.57083 6.86987 3.57083 9.34961V10.3884C3.57571 13.2131 2.40872 15.9382 0.296901 18.0344C0.201198 18.1299 0.126491 18.2402 0.0757093 18.3596C0.059596 18.3979 0.0459241 18.437 0.0346937 18.4771C0.00539679 18.5823 -0.00534539 18.6907 0.00246711 18.7981C0.00686164 18.8586 0.0171155 18.9189 0.0337171 18.9783C0.0791273 19.1431 0.168971 19.2952 0.294948 19.4216C0.421412 19.5481 0.580104 19.6448 0.75735 19.7036C3.17385 20.5034 5.67483 21.0806 8.22171 21.4268C8.1636 22.1389 8.26956 22.854 8.53372 23.5278C8.79788 24.2014 9.21389 24.8191 9.75637 25.342C10.2984 25.865 10.9551 26.2822 11.6856 26.5676C12.4156 26.8528 13.2036 27 14 27C14.7964 27 15.5845 26.8528 16.3145 26.5676C17.0449 26.2822 17.7017 25.865 18.2437 25.342C18.7862 24.8191 19.2022 24.2014 19.4663 23.5278C19.7305 22.854 19.8365 22.1389 19.7783 21.4268C22.3604 21.0762 24.857 20.4944 27.2427 19.7048C27.4204 19.6462 27.5791 19.5491 27.7051 19.4226C27.8316 19.2961 27.9209 19.1436 27.9663 18.9788C28.0117 18.814 28.0113 18.6418 27.9649 18.4771C27.919 18.3125 27.8286 18.1604 27.7017 18.0344C25.6651 16.0081 24.4292 13.3291 24.4292 10.3884V9.34961C24.4292 6.86987 23.3306 4.49194 21.3745 2.73853C19.4185 0.985107 16.7661 0 14 0C11.2339 0 8.58157 0.985107 6.62551 2.73853ZM10.7481 22.9097C10.5821 22.5166 10.5069 22.0974 10.5269 21.6775C12.8374 21.864 15.1626 21.864 17.4732 21.6775C17.4932 22.0974 17.418 22.5166 17.2525 22.9097C17.0865 23.303 16.834 23.6621 16.5093 23.9656C16.1851 24.269 15.7954 24.5105 15.3643 24.6753C14.9331 24.8403 14.4688 24.9253 14 24.9253C13.5313 24.9253 13.0674 24.8403 12.6358 24.6753C12.2046 24.5105 11.815 24.269 11.4907 23.9656C11.166 23.6621 10.9136 23.303 10.7481 22.9097ZM15.0313 8.78125L11.8907 15H14.125L17.2813 8.73438V7H11.3438V8.73438H15.0313V8.78125Z" fill="white"/>
</svg>