<svg width="28" height="27" viewBox="0 0 28 27" fill="none" xmlns="http://www.w3.org/2000/svg">
<path fill-rule="evenodd" clip-rule="evenodd" d="M14.0013 0C11.2353 0 8.58259 0.985051 6.62673 2.73845C4.67088 4.49186 3.57209 6.86998 3.57209 9.34966V10.3885C3.57684 13.2131 2.4099 15.9383 0.298087 18.0345C0.171266 18.1606 0.0808649 18.3127 0.0347968 18.4774C-0.0112713 18.6421 -0.0116014 18.8144 0.033835 18.9792C0.0792714 19.1441 0.169089 19.2964 0.295426 19.4229C0.421762 19.5495 0.580766 19.6463 0.758517 19.7049C3.1441 20.4945 5.64093 21.0762 8.22274 21.4267C8.16461 22.1388 8.27089 22.8541 8.53495 23.5277C8.79901 24.2014 9.21517 24.8191 9.75745 25.3421C10.2997 25.8651 10.9565 26.2823 11.6866 26.5675C12.4168 26.8528 13.2048 27 14.0013 27C14.7978 27 15.5858 26.8528 16.3159 26.5675C17.0461 26.2823 17.7029 25.8651 18.2451 25.3421C18.7874 24.8191 19.2036 24.2014 19.4676 23.5277C19.7317 22.8541 19.838 22.1388 19.7798 21.4267C22.3261 21.0806 24.8266 20.5033 27.2425 19.7036C27.42 19.6448 27.5787 19.548 27.7049 19.4216C27.831 19.2952 27.9207 19.143 27.9661 18.9784C28.0115 18.8137 28.0113 18.6416 27.9654 18.4771C27.9195 18.3126 27.8294 18.1606 27.703 18.0345C25.5917 15.9381 24.4253 13.2129 24.4305 10.3885V9.34966C24.4305 6.86998 23.3317 4.49186 21.3759 2.73845C19.42 0.985051 16.7673 0 14.0013 0ZM10.5249 21.8159C10.5249 21.7688 10.5249 21.7231 10.528 21.6774C12.8388 21.864 15.1637 21.864 17.4746 21.6774L17.4777 21.8159C17.4777 22.6424 17.1114 23.4352 16.4595 24.0196C15.8075 24.6041 14.9233 24.9324 14.0013 24.9324C13.0793 24.9324 12.1951 24.6041 11.5431 24.0196C10.8912 23.4352 10.5249 22.6424 10.5249 21.8159ZM11.6837 7.27196C11.3764 7.27196 11.0816 7.38141 10.8643 7.57623C10.647 7.77106 10.5249 8.03529 10.5249 8.31081C10.5249 8.58633 10.647 8.85057 10.8643 9.04539C11.0816 9.24021 11.3764 9.34966 11.6837 9.34966H14.1543L10.7196 13.9677C10.6032 14.1242 10.5365 14.306 10.5263 14.4938C10.5162 14.6816 10.5631 14.8683 10.6621 15.0341C10.761 15.1999 10.9083 15.3385 11.0883 15.4351C11.2682 15.5317 11.474 15.5828 11.6837 15.5828H16.3189C16.6262 15.5828 16.921 15.4733 17.1383 15.2785C17.3556 15.0837 17.4777 14.8194 17.4777 14.5439C17.4777 14.2684 17.3556 14.0042 17.1383 13.8093C16.921 13.6145 16.6262 13.5051 16.3189 13.5051H13.8483L17.283 8.88703C17.3993 8.73058 17.4661 8.54876 17.4763 8.36096C17.4864 8.17316 17.4395 7.98641 17.3405 7.82064C17.2415 7.65486 17.0943 7.51627 16.9143 7.41964C16.7344 7.32302 16.5286 7.27197 16.3189 7.27196H11.6837Z" fill="white"/>
</svg>