<svg width="28" height="27" viewBox="0 0 28 27" fill="none" xmlns="http://www.w3.org/2000/svg">
<path fill-rule="evenodd" clip-rule="evenodd" d="M6.62511 2.73845C4.66928 4.49186 3.5705 6.86998 3.5705 9.34966V10.3885C3.57526 13.2131 2.40833 15.9383 0.29655 18.0345C0.170072 18.1606 0.0799625 18.3126 0.0340914 18.4771C-0.0117797 18.6416 -0.0120171 18.8137 0.0333999 18.9784C0.078817 19.143 0.168507 19.2952 0.294637 19.4216C0.420767 19.548 0.5795 19.6448 0.756974 19.7036C3.17341 20.5033 5.67432 21.0807 8.22109 21.4267C8.16297 22.1388 8.26925 22.8541 8.5333 23.5277C8.79736 24.2014 9.21351 24.8191 9.75578 25.3421C10.298 25.8651 10.9548 26.2823 11.685 26.5675C12.4151 26.8528 13.2031 27 13.9996 27C14.7961 27 15.584 26.8528 16.3142 26.5675C17.0444 26.2823 17.7011 25.8651 18.2434 25.3421C18.7856 24.8191 19.2018 24.2014 19.4658 23.5277C19.7299 22.8541 19.8362 22.1388 19.778 21.4267C22.3598 21.0762 24.8566 20.4945 27.2422 19.7049C27.4198 19.6461 27.5786 19.5492 27.7048 19.4226C27.831 19.296 27.9206 19.1437 27.9659 18.9788C28.0112 18.814 28.0107 18.6417 27.9645 18.4771C27.9184 18.3125 27.8279 18.1605 27.701 18.0345C25.6647 16.008 24.4286 13.3292 24.4286 10.3885V9.34966C24.4286 6.86998 23.3299 4.49186 21.374 2.73845C19.4182 0.985051 16.7655 0 13.9996 0C11.2336 0 8.58094 0.985051 6.62511 2.73845ZM10.7474 22.9098C10.5817 22.5165 10.5065 22.0973 10.5263 21.6774C12.8371 21.864 15.162 21.864 17.4728 21.6774C17.4926 22.0973 17.4174 22.5165 17.2518 22.9098C17.0861 23.303 16.8335 23.6621 16.509 23.9655C16.1845 24.269 15.7949 24.5104 15.3637 24.6753C14.9324 24.8403 14.4684 24.9253 13.9996 24.9253C13.5307 24.9253 13.0667 24.8403 12.6354 24.6753C12.2042 24.5104 11.8146 24.269 11.4901 23.9655C11.1657 23.6621 10.913 23.303 10.7474 22.9098ZM15.4526 15V7H13.4526L11.4839 8.20312V10.0469L13.2339 9H13.2808V15H15.4526Z" fill="white"/>
</svg>