<svg width="28" height="27" viewBox="0 0 28 27" fill="none" xmlns="http://www.w3.org/2000/svg">
<path fill-rule="evenodd" clip-rule="evenodd" d="M6.62555 2.73853C4.66999 4.49194 3.57086 6.86987 3.57086 9.34961V10.3884C3.57575 13.2131 2.40875 15.9382 0.296938 18.0344C0.170473 18.1606 0.0806296 18.3125 0.0347312 18.4771C-0.0111672 18.6416 -0.0116555 18.8137 0.0337546 18.9783C0.0791648 19.1431 0.169009 19.2952 0.294985 19.4216C0.350161 19.4768 0.411684 19.5264 0.478091 19.5696C0.56354 19.6252 0.657778 19.6704 0.757387 19.7036C3.17389 20.5034 5.67487 21.0806 8.22174 21.4268C8.16364 22.1389 8.26959 22.854 8.53375 23.5278C8.79791 24.2014 9.21393 24.8191 9.75641 25.342C10.1373 25.7095 10.5748 26.0249 11.0548 26.2791C11.2579 26.3865 11.4683 26.4829 11.6856 26.5676C12.4156 26.8528 13.2037 27 14.0001 27C14.7964 27 15.5845 26.8528 16.3145 26.5676C17.045 26.2822 17.7017 25.865 18.2437 25.342C18.7862 24.8191 19.2022 24.2014 19.4664 23.5278C19.7305 22.854 19.8365 22.1389 19.7784 21.4268C22.3604 21.0762 24.857 20.4944 27.2427 19.7048C27.4205 19.6462 27.5792 19.5491 27.7051 19.4226C27.8316 19.2961 27.921 19.1436 27.9664 18.9788C27.9898 18.8931 28.001 18.8057 28.0001 18.7183C27.9991 18.6372 27.9874 18.5562 27.9649 18.4771C27.919 18.3125 27.8287 18.1604 27.7017 18.0344C25.6651 16.0081 24.4293 13.3291 24.4293 10.3884V9.34961C24.4293 6.86987 23.3306 4.49194 21.3746 2.73853C19.4185 0.985107 16.7662 0 14.0001 0C11.2339 0 8.58161 0.985107 6.62555 2.73853ZM10.7481 22.9097C10.5821 22.5166 10.5069 22.0974 10.5269 21.6775C12.8375 21.864 15.1627 21.864 17.4732 21.6775C17.4932 22.0974 17.418 22.5166 17.2525 22.9097C17.1382 23.1809 16.9825 23.4358 16.7906 23.6675C16.7042 23.7717 16.6099 23.8713 16.5093 23.9656C16.3433 24.1208 16.1607 24.2598 15.9634 24.3806C15.7755 24.4958 15.5748 24.5947 15.3643 24.6753C14.9332 24.8403 14.4688 24.9253 14.0001 24.9253C13.5313 24.9253 13.0674 24.8403 12.6358 24.6753C12.2047 24.5105 11.815 24.269 11.4908 23.9656C11.1661 23.6621 10.9136 23.303 10.7481 22.9097ZM12.5469 14.8906C12.9664 15.0364 13.4088 15.1094 13.8751 15.1094C14.2149 15.1094 14.5333 15.075 14.8301 15.0059C15.0836 14.947 15.3209 14.863 15.543 14.7539C16.025 14.5168 16.4009 14.1836 16.6719 13.7539C16.9454 13.3242 17.0806 12.823 17.0782 12.25C17.0806 11.7605 16.9805 11.3254 16.7774 10.9453C16.6465 10.7004 16.4825 10.489 16.2847 10.3113C16.1754 10.2129 16.0557 10.1248 15.9258 10.0469C15.564 9.82812 15.1407 9.71875 14.6563 9.71875C14.3516 9.71875 14.0626 9.76562 13.7891 9.85938C13.5157 9.95312 13.2759 10.0872 13.0704 10.2617C12.8648 10.4363 12.711 10.6458 12.6094 10.8906H12.5626C12.5665 10.4202 12.6246 10.0161 12.7379 9.67822C12.7798 9.55225 12.8297 9.43555 12.8868 9.32812C13.1002 8.93237 13.4351 8.73438 13.8907 8.73438C14.1197 8.73438 14.3228 8.78784 14.5001 8.89453C14.6798 8.99878 14.7945 9.16406 14.8438 9.39062H16.9844C16.9581 9.12012 16.8922 8.86353 16.7872 8.62085C16.7149 8.45435 16.6246 8.29419 16.5157 8.14062C16.2501 7.7605 15.8931 7.45703 15.4454 7.23047C14.9976 7.00391 14.4791 6.89062 13.8907 6.89062C13.3673 6.89062 12.8922 6.98828 12.4649 7.18359C12.231 7.28906 12.0147 7.42065 11.817 7.57788C11.6534 7.70752 11.502 7.85474 11.3633 8.01953C11.0587 8.38403 10.8228 8.82544 10.6563 9.34375C10.4923 9.86206 10.4088 10.4453 10.4063 11.0938C10.4039 11.8203 10.4937 12.4387 10.6758 12.9492C10.8609 13.4597 11.1148 13.8738 11.4376 14.1914C11.7603 14.509 12.1304 14.7422 12.5469 14.8906ZM14.4337 13.3203C14.2672 13.4192 14.0757 13.4688 13.8594 13.4688C13.7042 13.4688 13.5606 13.4417 13.4293 13.3879C13.3824 13.3687 13.337 13.3462 13.293 13.3203C13.1265 13.2214 12.9947 13.0859 12.8985 12.9141C12.8023 12.7422 12.7525 12.5469 12.7501 12.3281C12.7525 12.1641 12.7813 12.0129 12.836 11.875C12.8931 11.7344 12.9713 11.6133 13.0704 11.5117C13.1695 11.4075 13.2852 11.3281 13.418 11.2734C13.5533 11.2161 13.7007 11.1875 13.8594 11.1875C14.0132 11.1875 14.1548 11.2124 14.2833 11.2627C14.3355 11.283 14.3858 11.3074 14.4337 11.3359C14.6031 11.4348 14.7344 11.5703 14.8282 11.7422C14.9244 11.9114 14.9713 12.1067 14.9688 12.3281C14.9713 12.5469 14.9244 12.7422 14.8282 12.9141C14.7344 13.0859 14.6031 13.2214 14.4337 13.3203Z" fill="white"/>
</svg>