<svg width="28" height="27" viewBox="0 0 28 27" fill="none" xmlns="http://www.w3.org/2000/svg">
<path fill-rule="evenodd" clip-rule="evenodd" d="M6.62555 2.73853C4.66999 4.49194 3.57086 6.86987 3.57086 9.34961V10.3884C3.57575 13.2131 2.40875 15.9382 0.296938 18.0344C0.170473 18.1606 0.0806296 18.3125 0.0347312 18.4771C-0.0111672 18.6416 -0.0116555 18.8137 0.0337546 18.9783C0.0596335 19.0725 0.100161 19.1626 0.153872 19.2461C0.193911 19.3086 0.241274 19.3674 0.294985 19.4216C0.42145 19.5481 0.580141 19.6448 0.757387 19.7036C3.17389 20.5034 5.67487 21.0806 8.22174 21.4268C8.16364 22.1389 8.26959 22.854 8.53375 23.5278C8.79791 24.2014 9.21393 24.8191 9.75641 25.342C10.2984 25.865 10.9551 26.2822 11.6856 26.5676C12.4156 26.8528 13.2037 27 14.0001 27C14.7964 27 15.5845 26.8528 16.3145 26.5676C17.045 26.2822 17.7017 25.865 18.2437 25.342C18.4888 25.1057 18.7081 24.8501 18.899 24.5786C19.1309 24.2495 19.3214 23.897 19.4664 23.5278C19.7305 22.854 19.8365 22.1389 19.7784 21.4268C22.3604 21.0762 24.857 20.4944 27.2427 19.7048C27.4205 19.6462 27.5792 19.5491 27.7051 19.4226C27.8316 19.2961 27.921 19.1436 27.9664 18.9788C28.0118 18.814 28.0113 18.6418 27.9649 18.4771C27.919 18.3125 27.8287 18.1604 27.7017 18.0344C25.6651 16.0081 24.4293 13.3291 24.4293 10.3884V9.34961C24.4293 6.86987 23.3306 4.49194 21.3746 2.73853C19.4185 0.985107 16.7662 0 14.0001 0C11.2339 0 8.58161 0.985107 6.62555 2.73853ZM10.7481 22.9097C10.5821 22.5166 10.5069 22.0974 10.5269 21.6775C11.9503 21.7925 13.379 21.8364 14.8067 21.8098C15.6964 21.7932 16.586 21.749 17.4732 21.6775C17.4932 22.0974 17.418 22.5166 17.2525 22.9097C17.0865 23.303 16.834 23.6621 16.5093 23.9656C16.1851 24.269 15.7955 24.5105 15.3643 24.6753C14.9332 24.8403 14.4688 24.9253 14.0001 24.9253C13.5313 24.9253 13.0674 24.8403 12.6358 24.6753C12.2047 24.5105 11.815 24.269 11.4908 23.9656C11.1661 23.6621 10.9136 23.303 10.7481 22.9097ZM12.0665 14.8086C12.5743 15.009 13.1509 15.1094 13.7969 15.1094C14.0235 15.1094 14.2413 15.0972 14.4503 15.0725C14.8375 15.0266 15.1954 14.9387 15.5235 14.8086C15.9092 14.6565 16.232 14.4626 16.4918 14.228C16.5738 14.1536 16.6495 14.075 16.7188 13.9922C17.0103 13.6484 17.1563 13.2605 17.1563 12.8281C17.1563 12.4973 17.0728 12.1953 16.9063 11.9219C16.7398 11.6484 16.5157 11.4219 16.2344 11.2422C15.9532 11.0598 15.6407 10.9426 15.2969 10.8906V10.8281C15.7447 10.75 16.1173 10.5481 16.4141 10.2227C16.5338 10.0913 16.6295 9.94995 16.7012 9.79858C16.8067 9.57495 16.8594 9.32959 16.8594 9.0625C16.8594 8.64575 16.7266 8.27466 16.461 7.94922C16.1954 7.62109 15.8321 7.36328 15.3712 7.17578C15.1729 7.09399 14.9625 7.02979 14.7403 6.98315C14.4464 6.92139 14.1319 6.89062 13.7969 6.89062C13.2086 6.89062 12.6837 6.98438 12.2227 7.17188C11.7618 7.35938 11.3985 7.61719 11.1329 7.94531C10.983 8.12866 10.8756 8.32715 10.8101 8.54053C10.7598 8.70557 10.7344 8.87964 10.7344 9.0625C10.7344 9.50781 10.8804 9.89453 11.1719 10.2227C11.3438 10.4124 11.5425 10.5601 11.7691 10.6658C11.9312 10.7415 12.107 10.7957 12.2969 10.8281V10.8906C11.9507 10.9426 11.6368 11.0598 11.3555 11.2422C11.0743 11.4219 10.8502 11.6484 10.6837 11.9219C10.5196 12.1953 10.4376 12.4973 10.4376 12.8281C10.4376 13.2605 10.5821 13.6484 10.8712 13.9922C11.1627 14.3359 11.5611 14.6082 12.0665 14.8086ZM14.3438 13.4844C14.1851 13.5676 14.0025 13.6094 13.7969 13.6094C13.5938 13.6094 13.4117 13.5676 13.2501 13.4844C13.171 13.4414 13.0997 13.3911 13.0367 13.3335C12.9732 13.2754 12.918 13.2097 12.8712 13.1367C12.7798 12.991 12.7344 12.8254 12.7344 12.6406C12.7344 12.4558 12.7798 12.2917 12.8712 12.1484C12.9649 12.0051 13.0914 11.8933 13.2501 11.8125C13.3546 11.7588 13.4673 11.7224 13.5889 11.7034C13.6558 11.6929 13.7252 11.6875 13.7969 11.6875C14.0025 11.6875 14.1851 11.7292 14.3438 11.8125C14.5025 11.8933 14.6275 12.0051 14.7188 12.1484C14.8126 12.2917 14.8594 12.4558 14.8594 12.6406C14.8594 12.8254 14.8126 12.9922 14.7188 13.1406C14.6275 13.2864 14.5025 13.4011 14.3438 13.4844ZM14.2813 10.0742C14.1407 10.1497 13.9791 10.1875 13.7969 10.1875C13.6173 10.1875 13.4556 10.1497 13.3126 10.0742C13.1719 9.99609 13.0611 9.89185 12.9805 9.76172C12.9 9.62891 12.8594 9.47925 12.8594 9.3125C12.8594 9.14575 12.9 8.99878 12.9805 8.87109C13.0611 8.74097 13.1719 8.6394 13.3126 8.56641C13.4556 8.49097 13.6173 8.45312 13.7969 8.45312C13.9791 8.45312 14.1407 8.49097 14.2813 8.56641C14.3995 8.62769 14.4966 8.70947 14.5723 8.81104C14.587 8.83032 14.6006 8.85034 14.6133 8.87109C14.6939 8.99878 14.7344 9.14575 14.7344 9.3125C14.7344 9.47925 14.6939 9.62891 14.6133 9.76172C14.5328 9.89453 14.4219 9.99878 14.2813 10.0742Z" fill="white"/>
</svg>