<svg width="28" height="27" viewBox="0 0 28 27" fill="none" xmlns="http://www.w3.org/2000/svg">
<path fill-rule="evenodd" clip-rule="evenodd" d="M6.62555 2.73853C4.66999 4.49194 3.57086 6.86987 3.57086 9.34961V10.3884C3.57575 13.2131 2.40875 15.9382 0.296938 18.0344C0.170473 18.1606 0.0806296 18.3125 0.0347312 18.4771C-0.0111672 18.6416 -0.0116555 18.8137 0.0337546 18.9783C0.0791648 19.1431 0.169009 19.2952 0.294985 19.4216C0.42145 19.5481 0.580141 19.6448 0.757387 19.7036C3.17389 20.5034 5.67487 21.0806 8.22174 21.4268C8.16364 22.1389 8.26959 22.854 8.53375 23.5278C8.79791 24.2014 9.21393 24.8191 9.75641 25.342C10.2984 25.865 10.9551 26.2822 11.6856 26.5676C12.4156 26.8528 13.2037 27 14.0001 27C14.7964 27 15.5845 26.8528 16.3145 26.5676C17.045 26.2822 17.7017 25.865 18.2437 25.342C18.7862 24.8191 19.2022 24.2014 19.4664 23.5278C19.7305 22.854 19.8365 22.1389 19.7784 21.4268C22.3604 21.0762 24.857 20.4944 27.2427 19.7048C27.4205 19.6462 27.5792 19.5491 27.7051 19.4226C27.8316 19.2961 27.921 19.1436 27.9664 18.9788C28.0118 18.814 28.0113 18.6418 27.9649 18.4771C27.919 18.3125 27.8287 18.1604 27.7017 18.0344C25.6651 16.0081 24.4293 13.3291 24.4293 10.3884V9.34961C24.4293 6.86987 23.3306 4.49194 21.3746 2.73853C19.4185 0.985107 16.7662 0 14.0001 0C11.2339 0 8.58161 0.985107 6.62555 2.73853ZM10.7481 22.9097C10.5821 22.5166 10.5069 22.0974 10.5269 21.6775C12.8375 21.864 15.1627 21.864 17.4732 21.6775C17.4932 22.0974 17.418 22.5166 17.2525 22.9097C17.0865 23.303 16.834 23.6621 16.5093 23.9656C16.1851 24.269 15.7955 24.5105 15.3643 24.6753C14.9332 24.8403 14.4688 24.9253 14.0001 24.9253C13.5313 24.9253 13.0674 24.8403 12.6358 24.6753C12.4229 24.5938 12.2198 24.4937 12.0298 24.3767C11.8355 24.2568 11.6548 24.1191 11.4908 23.9656C11.2974 23.7849 11.1295 23.5845 10.9903 23.3689C10.8961 23.2224 10.815 23.0688 10.7481 22.9097ZM9.95319 12.0625V13.75H13.8438V15H15.9219V13.75H16.8438V12.0625H15.9219V7H14.7032H13.8907H13.1719L9.95319 12.0625ZM13.8907 9.25H13.8282L12.0938 12V12.0625H13.8907V9.25Z" fill="white"/>
</svg>