<svg width="33" height="27" viewBox="0 0 33 27" fill="none" xmlns="http://www.w3.org/2000/svg">
<path fill-rule="evenodd" clip-rule="evenodd" d="M32.6581 6.69389C23.7329 -2.2313 9.25943 -2.2313 0.332717 6.69389L0.334241 6.69541C0.120216 6.9097 0 7.20019 0 7.50305C0 7.80592 0.120216 8.0964 0.334241 8.31069L1.14188 9.11833C1.35617 9.33236 1.64666 9.45257 1.94952 9.45257C2.25239 9.45257 2.54287 9.33236 2.75716 9.11833C10.3444 1.53109 22.6464 1.53109 30.2352 9.11833C30.4495 9.33236 30.74 9.45257 31.0429 9.45257C31.3457 9.45257 31.6362 9.33236 31.8505 9.11833L32.6581 8.31069C32.7643 8.20456 32.8486 8.07853 32.9061 7.93982C32.9635 7.80112 32.9931 7.65244 32.9931 7.50229C32.9931 7.35214 32.9635 7.20347 32.9061 7.06476C32.8486 6.92605 32.7643 6.80003 32.6581 6.69389ZM24.5232 9.01114C18.3999 5.45691 10.4236 6.30079 5.18161 11.5428L5.18313 11.5443C4.9691 11.7586 4.84889 12.0491 4.84889 12.3519C4.84889 12.6548 4.9691 12.9453 5.18313 13.1596L5.99077 13.9672C6.20506 14.1812 6.49554 14.3015 6.79841 14.3015C7.10128 14.3015 7.39176 14.1812 7.60605 13.9672C9.9637 11.6097 13.1613 10.2852 16.4954 10.2852C17.5155 10.2852 18.5228 10.4092 19.4972 10.6488C20.9516 9.68859 22.6715 9.09807 24.5232 9.01114ZM15.1995 20.9975C15.4157 22.0636 15.8014 23.0682 16.3273 23.9818C16.2472 23.9673 16.1686 23.9443 16.0929 23.9129C15.9542 23.8555 15.8282 23.7712 15.7221 23.665L14.9144 22.8574C14.7004 22.6431 14.5802 22.3526 14.5802 22.0497C14.5802 21.7469 14.7004 21.4564 14.9144 21.2421L14.9129 21.2406C15.0018 21.1516 15.0977 21.0703 15.1995 20.9975ZM16.5102 13.7132C15.8366 14.7927 15.3631 16.0099 15.1417 17.313C14.8698 17.3811 14.6027 17.4692 14.3425 17.577C13.6491 17.8643 13.0191 18.2853 12.4885 18.8161C12.2742 19.0301 11.9837 19.1504 11.6808 19.1504C11.378 19.1504 11.0875 19.0301 10.8732 18.8161L10.0655 18.0085C9.85152 17.7942 9.7313 17.5037 9.7313 17.2008C9.7313 16.898 9.85152 16.6075 10.0655 16.3932L10.064 16.3917C10.9131 15.5425 11.921 14.8689 13.0304 14.4093C14.1338 13.9522 15.316 13.7157 16.5102 13.7132Z" fill="white"/>
<path fill-rule="evenodd" clip-rule="evenodd" d="M21.2099 14.4482L29.5525 22.7908C30.4999 21.6554 30.9883 20.2067 30.9217 18.7295C30.8552 17.2523 30.2385 15.8534 29.1929 14.8078C28.1473 13.7622 26.7484 13.1456 25.2712 13.079C23.794 13.0125 22.3453 13.5009 21.2099 14.4482ZM28.7915 23.5518L20.4489 15.2092C19.5016 16.3446 19.0132 17.7933 19.0797 19.2705C19.1463 20.7477 19.763 22.1466 20.8086 23.1922C21.8542 24.2378 23.253 24.8544 24.7302 24.921C26.2074 24.9875 27.6561 24.4991 28.7915 23.5518ZM20.0505 14.0505C22.7837 11.3165 27.2156 11.3165 29.9495 14.0505C32.6835 16.7837 32.6835 21.2156 29.9495 23.9495C27.2163 26.6835 22.7844 26.6835 20.0505 23.9495C17.3165 21.2163 17.3165 16.7844 20.0505 14.0505Z" fill="white" stroke="white"/>
</svg>