<svg width="24" height="24" viewBox="0 0 24 24" fill="none" xmlns="http://www.w3.org/2000/svg">
<g clip-path="url(#clip0_470_2)">
<rect x="4" y="4" width="16" height="16" rx="8" fill="white"/>
<path d="M7 12C7 13.3466 7.52678 14.638 8.46447 15.5902C9.40215 16.5424 10.6739 17.0773 12 17.0773C13.3261 17.0773 14.5979 16.5424 15.5355 15.5902C16.4732 14.638 17 13.3466 17 12M7 12C7 10.6534 7.52678 9.36199 8.46447 8.40982C9.40215 7.45764 10.6739 6.92271 12 6.92271C13.3261 6.92271 14.5979 7.45764 15.5355 8.40982C16.4732 9.36199 17 10.6534 17 12M7 12H6M17 12H18M17 12H12M12 12L9 6.72301M12 12L9.00067 17.277M6.362 14.083L7.302 13.7358M16.6987 10.2629L17.6387 9.9156M7.404 15.9163L8.17067 15.2637M15.8307 8.73632L16.5967 8.08372M14.5007 7.60307L15.0007 6.72301M10.9587 18L11.132 17.0001M12.8687 6.99989L13.042 6M13.042 18L12.8687 17.0001M11.132 6.99989L10.9587 6M15 17.2763L14.5 16.3969M16.596 15.9163L15.83 15.2637M8.17067 8.73564L7.404 8.08304M17.6387 14.0837L16.6987 13.7364M7.30267 10.2636L6.36267 9.9156" stroke="#484848" stroke-width="1.5" stroke-linecap="round" stroke-linejoin="round"/>
</g>
<defs>
<clipPath id="clip0_470_2">
<rect x="4" y="4" width="16" height="16" rx="4" fill="white"/>
</clipPath>
</defs>
</svg>
