<svg width="23" height="22" viewBox="0 0 23 22" fill="none" xmlns="http://www.w3.org/2000/svg">
<path fill-rule="evenodd" clip-rule="evenodd" d="M3.28779 6.09286C3.28703 4.67682 3.81869 3.30479 4.79132 2.21279C5.76395 1.12079 7.11675 0.377094 8.61701 0.109628C10.1173 -0.157838 11.6712 0.0676495 13.0115 0.747301C14.3517 1.42695 15.3946 2.51828 15.9606 3.83355C16.5888 3.7667 17.2252 3.83522 17.8202 4.03378C18.4151 4.23234 18.9525 4.55557 19.3906 4.97827C19.8286 5.40097 20.1554 5.91172 20.3455 6.47072C20.5356 7.02971 20.5838 7.62184 20.4864 8.20095C21.4365 8.69579 22.1827 9.4686 22.6084 10.3984C23.0342 11.3283 23.1153 12.3627 22.8392 13.3398C22.5631 14.317 21.9453 15.1817 21.0825 15.7988C20.2197 16.4158 19.1605 16.7503 18.0708 16.75H5.75162C4.44378 16.7506 3.17482 16.3378 2.15419 15.5798C1.13356 14.8218 0.422273 13.7639 0.137725 12.5808C-0.146823 11.3976 0.01238 10.1599 0.589057 9.07186C1.16573 7.98386 2.12541 7.11062 3.30969 6.59629C3.29499 6.42883 3.28769 6.26088 3.28779 6.09286Z" fill="#A7A7A7"/>
<rect width="3.42931" height="2.16269" rx="1.08135" transform="matrix(0.420024 -0.907513 0.932963 0.359972 4.28564 21.1121)" fill="#226FE2"/>
<rect width="3.42931" height="2.16269" rx="1.08135" transform="matrix(0.420024 -0.907513 0.932963 0.359972 15.2383 21.1121)" fill="#226FE2"/>
<rect width="3.42931" height="2.16269" rx="1.08135" transform="matrix(0.420024 -0.907513 0.932963 0.359972 9.76172 21.1121)" fill="#226FE2"/>
</svg>
