<svg width="24" height="24" viewBox="0 0 24 24" fill="none" xmlns="http://www.w3.org/2000/svg">
<path fill-rule="evenodd" clip-rule="evenodd" d="M7 3C4.79086 3 3 4.79086 3 7V17C3 19.2091 4.79086 21 7 21H17C19.2091 21 21 19.2091 21 17V7C21 4.79086 19.2091 3 17 3H7ZM7.83333 7.839V6.66873C7.83333 6.2994 8.13181 6 8.5 6C8.86819 6 9.16667 6.2994 9.16667 6.66873V7.839H10.3333C10.7015 7.839 11 8.1384 11 8.50773C11 8.87705 10.7015 9.17645 10.3333 9.17645H9.18182V10.3391C9.18182 10.7127 8.87995 11.0155 8.50758 11.0155C8.1352 11.0155 7.83333 10.7127 7.83333 10.3391V9.17645H6.66667C6.29848 9.17645 6 8.87705 6 8.50773C6 8.1384 6.29848 7.839 6.66667 7.839H7.83333ZM7.55719 16.0309L6.73223 15.2034C6.47188 14.9422 6.47188 14.5188 6.73223 14.2577C6.99258 13.9965 7.41469 13.9965 7.67504 14.2577L8.5 15.0852L9.32496 14.2577C9.58531 13.9965 10.0074 13.9965 10.2678 14.2577C10.5281 14.5188 10.5281 14.9422 10.2678 15.2034L9.45352 16.0202L10.2731 16.8423C10.5364 17.1064 10.5364 17.5346 10.2731 17.7988C10.0098 18.0629 9.58291 18.0629 9.3196 17.7988L8.5 16.9766L7.67504 17.8041C7.41469 18.0653 6.99258 18.0653 6.73223 17.8041C6.47188 17.543 6.47188 17.1196 6.73223 16.8584L7.55719 16.0309ZM13.6667 7.839C13.2985 7.839 13 8.1384 13 8.50773C13 8.87705 13.2985 9.17645 13.6667 9.17645H17.3333C17.7015 9.17645 18 8.87705 18 8.50773C18 8.1384 17.7015 7.839 17.3333 7.839H13.6667ZM13 14.8606C13 14.4913 13.2985 14.1919 13.6667 14.1919H17.3333C17.7015 14.1919 18 14.4913 18 14.8606C18 15.23 17.7015 15.5294 17.3333 15.5294H13.6667C13.2985 15.5294 13 15.23 13 14.8606ZM13.6667 16.5325C13.2985 16.5325 13 16.8319 13 17.2012C13 17.5705 13.2985 17.8699 13.6667 17.8699H17.3333C17.7015 17.8699 18 17.5705 18 17.2012C18 16.8319 17.7015 16.5325 17.3333 16.5325H13.6667Z" fill="#ffffff"/>
</svg>
