<svg width="24" height="24" viewBox="0 0 24 24" fill="none" xmlns="http://www.w3.org/2000/svg">
<path d="M21.721 12.752C21.8566 11.03 21.5304 9.30294 20.776 7.749C19.5274 8.93539 18.0513 9.85658 16.437 10.457C16.5668 12.0503 16.4949 13.6537 16.223 15.229C18.1875 14.7342 20.0489 13.8956 21.721 12.752ZM14.634 15.55C14.9534 14.023 15.0651 12.4599 14.966 10.903C14.014 11.13 13.021 11.25 12 11.25C10.979 11.25 9.986 11.13 9.034 10.903C8.93724 12.4599 9.0489 14.0227 9.366 15.55C11.1118 15.8176 12.8882 15.8176 14.634 15.55ZM9.772 17.119C11.2522 17.2941 12.7478 17.2941 14.228 17.119C13.7193 18.7566 12.9683 20.3088 12 21.724C11.0317 20.3088 10.2807 18.7566 9.772 17.119ZM7.777 15.23C7.50364 13.6542 7.43173 12.05 7.563 10.456C5.94828 9.85572 4.47192 8.93453 3.223 7.748C2.46882 9.30233 2.14294 11.0297 2.279 12.752C3.95114 13.8956 5.81252 14.7352 7.777 15.23ZM21.356 14.752C20.8511 16.4629 19.8872 18.0029 18.5689 19.2047C17.2506 20.4065 15.6282 21.2242 13.878 21.569C14.7545 20.0953 15.4235 18.5076 15.866 16.851C17.7955 16.4466 19.6486 15.7384 21.356 14.753V14.752ZM2.644 14.752C4.326 15.723 6.174 16.44 8.134 16.851C8.57651 18.5076 9.24548 20.0953 10.122 21.569C8.37189 21.2242 6.74964 20.4067 5.43134 19.2051C4.11304 18.0035 3.14905 16.4638 2.644 14.753V14.752ZM13.878 2.43C16.3557 2.91701 18.5481 4.34583 19.994 6.416C18.9267 7.49438 17.6525 8.34608 16.248 8.92C15.8696 6.62782 15.0658 4.42664 13.878 2.43ZM12 2.276C13.4594 4.4081 14.4183 6.84236 14.805 9.397C13.908 9.627 12.968 9.75 12 9.75C11.032 9.75 10.092 9.628 9.195 9.397C9.58169 6.84235 10.5406 4.40808 12 2.276ZM10.122 2.43C8.93423 4.42663 8.13041 6.62781 7.752 8.92C6.34746 8.3461 5.07331 7.4944 4.006 6.416C5.45204 4.34613 7.64439 2.91666 10.122 2.43Z" fill="#ffffff"/>
</svg>
